<svg
    version="1.1"
    id="Layer_1"
    xmlns="http://www.w3.org/2000/svg"
    xmlns:xlink="http://www.w3.org/1999/xlink"
    viewBox="0 0 64 64"
    xml:space="preserve"
    width="100px"
    height="100px">
    <g>
        <path style="fill:#4D4D4D;" d="M52,2H12C6.477,2,2,6.477,2,12v40c0,5.523,4.477,10,10,10h40c5.523,0,10-4.477,10-10V12
            C62,6.477,57.523,2,52,2z M56,52c0,2.211-1.789,4-4,4H12c-2.211,0-4-1.789-4-4V12c0-2.211,1.789-4,4-4h40c2.211,0,4,1.789,4,4V52z"
        />
        <polygon style="fill:#4D4D4D;" points="26,44 38,44 38,50 44,50 44,44 50,44 50,38 44,38 44,32 38,32 38,38 26,38 26,32 20,32 20,38 14,38 
            14,44 20,44 20,50 26,50 "
        />
        <rect x="14" y="14" style="fill:#4D4D4D;" width="36" height="14"/>
    </g>
</svg>